<!-- icon666.com - MILLIONS vector ICONS FREE --><svg version="1.1" id="Capa_1" xmlns="http://www.w3.org/2000/svg" xmlns:xlink="http://www.w3.org/1999/xlink" x="0px" y="0px" viewBox="0 0 174.239 174.239" style="enable-background:new 0 0 174.239 174.239;" xml:space="preserve"><g><path d="M173.442,63.716C173.442,28.581,144.861,0,109.728,0C86.642,0,66.445,12.384,55.267,30.817 C24.914,32.755,0.797,57.993,0.797,88.826c0,29.556,22.162,53.984,50.731,57.668v20.277c0,3.126,1.947,5.921,4.881,7.006 c0.843,0.311,1.719,0.462,2.584,0.462c2.142,0,4.23-0.924,5.676-2.616l36.8-43.02c0.308-0.359,0.565-0.744,0.792-1.139v22.667 c0,3.126,1.947,5.921,4.881,7.006c0.843,0.311,1.719,0.462,2.584,0.462c2.142,0,4.23-0.924,5.676-2.616l40.798-47.697 c0.144-0.168,0.244-0.356,0.37-0.532C167.009,95.403,173.442,80.315,173.442,63.716z M109.728,14.935 c26.897,0,48.779,21.882,48.779,48.781c0,26.894-21.882,48.776-48.779,48.776c-26.899,0-48.781-21.882-48.781-48.776 C60.947,36.817,82.829,14.935,109.728,14.935z M15.732,88.826c0-20.168,13.891-37.106,32.593-41.877 c-1.464,5.352-2.313,10.957-2.313,16.767c0,26.677,16.501,49.543,39.818,59.019c-7.614,6.05-16.965,9.359-26.835,9.359 C35.14,132.094,15.732,112.682,15.732,88.826z"></path><path d="M97.455,60.493h24.551c4.125,0,7.467-3.345,7.467-7.467s-3.342-7.467-7.467-7.467H97.455c-4.125,0-7.467,3.345-7.467,7.467 S93.33,60.493,97.455,60.493z"></path><path d="M97.455,86.006h24.551c4.125,0,7.467-3.345,7.467-7.467s-3.342-7.467-7.467-7.467H97.455c-4.125,0-7.467,3.345-7.467,7.467 S93.33,86.006,97.455,86.006z"></path></g></svg>