<!-- icon666.com - MILLIONS vector ICONS FREE --><svg xmlns="http://www.w3.org/2000/svg" xmlns:xlink="http://www.w3.org/1999/xlink" version="1.1" id="Capa_1" x="0px" y="0px" viewBox="0 0 512 512" style="enable-background:new 0 0 512 512;" xml:space="preserve"><g><path id="path3063" style="fill:#5F4410;" d="M52.913,285.807c0,8.318-2.235,14.639-6.704,18.963 c-4.47,4.324-10.852,6.485-19.147,6.485c-6.767,0-12.244-1.591-16.432-4.772c-4.67-3.589-7.086-8.687-7.248-15.293h2.419 c0.241,5.872,2.415,10.357,6.522,13.456c3.704,2.773,8.577,4.159,14.618,4.159c15.706,0,23.559-7.666,23.559-22.999v-19.209h-0.243 c-1.207,5.384-4.166,9.707-8.878,12.969c-4.712,3.262-9.887,4.893-15.525,4.893c-8.295,0-14.779-3.058-19.452-9.173 C2.133,269.74,0,262.644,0,253.997c0-8.809,2.215-16.067,6.644-21.774c4.913-6.2,11.597-9.3,20.053-9.3 c5.557,0,10.551,1.713,14.981,5.139c4.43,3.426,7.289,7.83,8.577,13.211h0.243v-16.883h2.415V285.807z M50.377,253.997 c0-7.748-1.974-14.313-5.921-19.695c-4.429-5.954-10.349-8.931-17.759-8.931c-7.73,0-13.811,2.895-18.242,8.684 c-4.026,5.22-6.039,11.867-6.039,19.941c0,7.913,1.893,14.397,5.678,19.452c4.269,5.71,10.149,8.565,17.638,8.565 c7.651,0,13.773-2.773,18.364-8.318C48.282,268.476,50.376,261.91,50.377,253.997z"></path><path id="path3065" style="fill:#5F4410;" d="M114.873,256.076c0,9.135-2.376,16.802-7.127,23.003 c-5.157,6.85-12.123,10.275-20.901,10.275c-8.698,0-15.665-3.425-20.901-10.275c-4.672-6.2-7.009-13.868-7.009-23.003 c0-9.053,2.377-16.719,7.13-22.999c5.235-6.77,12.201-10.155,20.897-10.155c8.698,0,15.626,3.426,20.783,10.279 C112.497,239.398,114.873,247.024,114.873,256.076z M112.454,256.076c0-8.318-2.133-15.374-6.4-21.166 c-4.754-6.36-11.117-9.539-19.09-9.539c-7.973,0-14.336,3.18-19.087,9.539c-4.348,5.71-6.522,12.765-6.522,21.166 c0,8.483,2.133,15.579,6.4,21.289c4.754,6.362,11.156,9.543,19.208,9.543c8.054,0,14.418-3.181,19.09-9.543 C110.321,271.573,112.454,264.477,112.454,256.076z"></path><path id="path3067" style="fill:#5F4410;" d="M175.457,256.076c0,9.135-2.376,16.802-7.127,23.003 c-5.157,6.85-12.123,10.275-20.901,10.275c-8.698,0-15.665-3.425-20.901-10.275c-4.672-6.2-7.009-13.868-7.009-23.003 c0-9.053,2.377-16.719,7.13-22.999c5.235-6.77,12.201-10.155,20.897-10.155c8.698,0,15.626,3.426,20.783,10.279 C173.082,239.398,175.457,247.024,175.457,256.076z M173.039,256.076c0-8.318-2.133-15.374-6.4-21.166 c-4.754-6.36-11.117-9.539-19.09-9.539c-7.973,0-14.336,3.18-19.087,9.539c-4.348,5.71-6.522,12.765-6.522,21.166 c0,8.483,2.133,15.579,6.4,21.289c4.754,6.362,11.156,9.543,19.208,9.543c8.054,0,14.418-3.181,19.09-9.543 C170.905,271.573,173.039,264.477,173.039,256.076z"></path><path id="path3069" style="fill:#5F4410;" d="M231.691,287.887h-2.415v-17.738h-0.243c-1.61,5.79-4.67,10.438-9.18,13.945 c-4.51,3.507-9.745,5.261-15.706,5.261c-8.536,0-15.22-3.466-20.053-10.398c-4.269-6.118-6.404-13.704-6.404-22.756 c0-8.891,2.174-16.476,6.522-22.756c4.832-7.014,11.477-9.908,19.935-9.908c6.201,0,11.517,1.693,15.947,5.078 c4.43,3.385,7.41,8.096,8.939,14.132h0.243v-42h2.415V287.887z M229.277,256.2c0-8.809-1.974-15.945-5.921-21.409 c-4.429-6.28-10.832-9.42-19.208-9.42c-7.811,0-13.892,3.262-18.242,9.786c-3.866,5.71-5.799,12.724-5.799,21.043 c0,8.401,1.893,15.415,5.678,21.043c4.35,6.444,10.472,9.666,18.364,9.666c7.892,0,14.174-3.222,18.847-9.666 C227.182,271.532,229.277,264.518,229.277,256.2z"></path><path id="path3071" style="fill:#5F4410;" d="M244.185,287.887v-63.441h8.157v12.758c2.438-4.5,3.92-7.076,5.984-8.51 c2.065-1.434,4.683-3.644,6.999-4.525c3.04-1.157,7.382-2.482,10.913-0.668l0.145,8.984c-2.596-1.553-8.662,0.315-11.588,1.637 c-2.114,0.956-4.759,2.295-6.233,4.096c-1.731,2.115-3.303,3.036-4.089,5.545c-1.18,3.823-1.653,6.369-1.653,10.909v33.214H244.185 z"></path><path id="path3073" style="fill:#5F4410;" d="M283.021,251.395h40.058c-0.54-6.111-2.072-10.695-4.594-13.75 c-3.873-4.743-8.894-7.114-15.064-7.115c-5.584,0-10.279,1.893-14.085,5.678C285.532,239.994,283.427,245.056,283.021,251.395z M321.91,267.622l9.98-0.114c-1.73,6.492-5.431,12.852-10.111,16.436c-4.68,3.584-10.657,5.376-17.933,5.376 c-9.163,0-16.428-2.857-21.796-8.572c-5.368-5.715-8.052-13.73-8.052-24.044c0-10.673,2.713-18.957,8.14-24.851 c5.427-5.894,12.466-8.841,21.118-8.841c8.376,0,15.219,2.887,20.528,8.662c5.309,5.775,7.963,13.899,7.964,24.373 c0,0.637-0.02,1.593-0.059,2.867h-49.033c0.393,6.969,2.67,13.794,6.171,17.497c3.5,3.704,9.849,5.556,15.079,5.556 c3.893,0,8.704-2.358,11.457-4.429C318.115,275.467,320.298,272.162,321.91,267.622L321.91,267.622z"></path><path id="path3075" style="fill:#5F4410;" d="M378.22,280.061c-3.933,3.385-7.718,5.775-11.355,7.169 c-3.638,1.394-7.541,2.091-11.709,2.091c-6.882,0-12.171-1.703-15.868-5.108c-3.697-3.405-5.545-7.756-5.545-13.053 c0-3.106,0.698-5.944,2.094-8.513c1.396-2.569,3.225-4.63,5.486-6.183c2.261-1.553,4.808-2.728,7.639-3.525 c2.084-0.558,5.23-1.095,9.438-1.613c8.573-1.035,14.885-2.27,18.935-3.704c0.039-1.473,0.059-2.409,0.059-2.808 c0-4.381-1.003-9.285-3.008-11.078c-2.714-2.429-6.744-3.644-12.093-3.644c-4.994,0-8.681,0.886-11.06,2.658 c-2.379,1.772-5.296,5.074-5.28,11.227l-9.598-0.029c0.944-4.5,1.713-9.539,3.876-12.307c2.163-2.768,5.289-4.898,9.379-6.392 c4.09-1.493,8.829-2.24,14.216-2.24c5.348,0,8.876,0.637,12.218,1.912c3.343,1.274,5.567,3.228,7.14,5.16 c1.573,1.932,2.323,4.02,2.953,6.967c0.354,1.832,0.531,5.137,0.531,9.916v14.337c0,9.996-0.358,13.046,0.094,15.694 c0.452,2.648,3.1,3.785,6.541,3.175l0.134,8.199c0,0-8.262,0.495-11.107-0.602C380.01,286.875,378.534,283.048,378.22,280.061 L378.22,280.061z M377.335,254.995c-3.854,1.593-8.349,1.428-16.174,3.01c-4.95,1.105-7.102,1.471-8.911,2.267 c-1.809,0.797-5.33,1.19-7.812,4.196c-1.995,2.416-1.708,4.872-1.708,7.562c0,2.867,2.357,5.257,4.501,7.169 c2.143,1.912,6.331,1.699,10.461,1.699c4.09,0,7.728-0.906,10.913-2.718c3.185-1.812,5.525-4.291,7.02-7.437 c1.14-2.429,1.711-6.014,1.711-10.753V254.995z"></path><path id="path3077" style="fill:#5F4410;" d="M444.986,288.354v-8.005c-3.972,6.292-15.188,9.439-22.896,9.439 c-4.994,0-9.586-1.394-13.774-4.182c-4.188-2.788-7.433-6.681-9.733-11.679c-2.301-4.998-3.451-10.743-3.451-17.234 c0-6.332,1.042-12.077,3.126-17.234c2.084-5.157,5.211-9.11,9.379-11.858c4.169-2.748,8.829-4.122,13.98-4.122 c3.775,0,12.514,0.807,15.464,2.419c2.949,1.613,5.348,3.714,7.197,6.302v-31.422h9.156v87.576H444.986z M403.07,256.693 c0,8.124,1.691,14.198,5.073,18.22c3.382,4.022,11.01,7.686,15.611,7.686c4.64,0,13.298-3.575,16.543-7.418 c3.244-3.843,4.867-9.707,4.867-17.593c0-8.682-1.652-15.054-4.955-19.116c-3.303-4.062-11.097-8.077-15.934-8.077 c-4.719,0-13.29,3.935-16.456,7.838C404.652,242.137,403.07,248.29,403.07,256.693z"></path><path id="path3079" style="fill:#5F4410;" d="M460.798,266.884l7.938-0.102c0.59,4.261,2.976,8.849,5.669,11.119 c2.694,2.27,7.451,3.736,12.288,3.736c4.876,0,9.156-0.84,11.515-2.851c2.359-2.011,5.358-3.544,5.358-7.74 c0-2.429-1.373-5.498-3.457-6.892c-1.455-0.956-6.065-2.997-11.846-4.47c-7.787-1.991-12.523-2.557-15.531-4.01 c-3.008-1.454-6.281-3.134-7.835-5.703c-1.553-2.569-2.33-5.406-2.33-8.513c0-2.828,0.639-5.446,1.917-7.856 c1.278-2.409,3.018-4.411,5.221-6.004c1.652-1.235,3.077-2.28,5.928-3.136c2.851-0.856,5.909-1.284,9.173-1.284 c4.916,0,9.232,0.717,12.948,2.151c3.716,1.434,6.459,3.375,8.229,5.824c1.77,2.449,3.071,7.378,3.74,11.48l-7.903-0.054 c-0.472-3.266-3.574-8.129-5.835-9.961c-2.261-1.832-7.936-2.417-12.065-2.417c-4.876,0-7.2,2.139-9.284,3.772 c-2.084,1.633-3.126,3.544-3.126,5.735c0,1.394-0.063,2.979,0.802,4.094c0.865,1.155,2.883,2.937,4.731,3.694 c1.062,0.398,4.684,1.81,9.875,3.244c7.511,2.031,12.586,2.537,15.555,3.831c2.969,1.294,5.299,3.176,6.99,5.645 c1.691,2.469,2.536,5.536,2.536,9.2c0,3.584-1.032,6.959-3.097,10.126c-2.065,3.166-5.044,5.615-8.937,7.348 c-3.893,1.732-8.298,2.599-13.214,2.599c-8.14,0-14.344-1.712-18.611-5.137C463.875,280.923,461.978,273.614,460.798,266.884 L460.798,266.884z"></path></g></svg>